# xmcd CD database file
#
# Track frame offsets:
#	150
#	37383
#	57940
#	94732
#	114448
#
# Disc length: 2748 seconds
#
# Revision: 0
# Processed by: cddbd v1.5.2PL0 Copyright (c) Steve Scherf et al.
# Submitted via: CDex 1.70beta2
#
DISCID=400aba05
DTITLE=Jan Garbarek - Bobo Stenson Quartet - Witchi-Tai-To
DYEAR=1974
DGENRE=Jazz
TTITLE0=A.I.R.
TTITLE1=Kukka
TTITLE2=Hasta Siempre
TTITLE3=Witchi-Tai-To
TTITLE4=Desireless
EXTD=YEAR: 1974
EXTT0=
EXTT1=
EXTT2=
EXTT3=
EXTT4=
PLAYORDER=
